<?xml version="1.0" encoding="utf-8"?>
<!-- Generator: Adobe Illustrator 24.2.0, SVG Export Plug-In . SVG Version: 6.00 Build 0)  -->
<svg version="1.1" id="圖層_1" xmlns="http://www.w3.org/2000/svg" xmlns:xlink="http://www.w3.org/1999/xlink" x="0px" y="0px"
	 viewBox="0 0 500 500" style="enable-background:new 0 0 500 500;" xml:space="preserve">
<style type="text/css">
	.st0{fill:#231815;}
</style>
<g>
	<g>
		<g>
			<path class="st0" d="M433.6,284.2h-42.3c-2.5,0-4.6-2.1-4.6-4.6V171.5c0-2.5,2.1-4.6,4.6-4.6h42.3c2.5,0,4.6,2.1,4.6,4.6v108.1
				C438.1,282.1,436.1,284.2,433.6,284.2z M395.8,275H429v-98.9h-33.1V275H395.8z"/>
		</g>
		<g>
			<g>
				<path class="st0" d="M233,447.7c-60.1,0-109-48.9-109-109V136.2c0-2.5,2.1-4.6,4.6-4.6c2.5,0,4.6,2.1,4.6,4.6v202.5
					c0,55,44.8,99.8,99.8,99.8s99.8-44.8,99.8-99.8v-49.9c0-14.7,12-26.7,26.7-26.7h31.7c2.5,0,4.6,2.1,4.6,4.6
					c0,2.5-2.1,4.6-4.6,4.6h-31.7c-9.6,0-17.5,7.8-17.5,17.5v49.9C342,398.8,293.1,447.7,233,447.7z"/>
			</g>
			<g>
				<path class="st0" d="M233,365.4c-14.7,0-26.7-12-26.7-26.7V136.2c0-2.5,2.1-4.6,4.6-4.6s4.6,2.1,4.6,4.6v202.5
					c0,9.6,7.8,17.5,17.5,17.5c9.6,0,17.5-7.8,17.5-17.5v-49.9c0-60.1,48.9-109,109-109h31.7c2.5,0,4.6,2.1,4.6,4.6
					s-2.1,4.6-4.6,4.6h-31.7c-55,0-99.8,44.8-99.8,99.8v49.9C259.7,353.4,247.8,365.4,233,365.4z"/>
			</g>
		</g>
		<g>
			<path class="st0" d="M223.9,140.8H115.7c-2.5,0-4.6-2.1-4.6-4.6V93.9c0-2.5,2.1-4.6,4.6-4.6h108.1c2.5,0,4.6,2.1,4.6,4.6v42.3
				C228.5,138.7,226.4,140.8,223.9,140.8z M120.3,131.6h98.9V98.5h-98.9C120.3,98.5,120.3,131.6,120.3,131.6z"/>
		</g>
	</g>
	<g>
		<path class="st0" d="M337.4,301.7h-82.3c-2.5,0-4.6-2.1-4.6-4.6s2.1-4.6,4.6-4.6h82.3c2.5,0,4.6,2.1,4.6,4.6
			S340,301.7,337.4,301.7z"/>
	</g>
	<g>
		<path class="st0" d="M211,301.7h-82.3c-2.5,0-4.6-2.1-4.6-4.6s2.1-4.6,4.6-4.6H211c2.5,0,4.6,2.1,4.6,4.6S213.5,301.7,211,301.7z"
			/>
	</g>
</g>
</svg>
