<?xml version="1.0" encoding="utf-8"?>
<!-- Generator: Adobe Illustrator 24.1.2, SVG Export Plug-In . SVG Version: 6.00 Build 0)  -->
<svg version="1.1" id="圖層_1" xmlns="http://www.w3.org/2000/svg" xmlns:xlink="http://www.w3.org/1999/xlink" x="0px" y="0px"
	 viewBox="0 0 500 500" style="enable-background:new 0 0 500 500;" xml:space="preserve">
<style type="text/css">
	.st0{fill:#3D5D89;}
</style>
<g>
	<g>
		<g>
			<path class="st0" d="M433.6,272.2h-42.3c-2.5,0-4.6-2.1-4.6-4.6V159.5c0-2.5,2.1-4.6,4.6-4.6h42.3c2.5,0,4.6,2.1,4.6,4.6v108.1
				C438.1,270.1,436.1,272.2,433.6,272.2z M395.8,263H429v-98.9h-33.1V263z"/>
		</g>
		<g>
			<g>
				<path class="st0" d="M233,435.7c-60.1,0-109-48.9-109-109V124.2c0-2.5,2.1-4.6,4.6-4.6c2.5,0,4.6,2.1,4.6,4.6v202.5
					c0,55,44.8,99.8,99.8,99.8s99.8-44.8,99.8-99.8v-49.9c0-14.7,12-26.7,26.7-26.7h31.7c2.5,0,4.6,2.1,4.6,4.6
					c0,2.5-2.1,4.6-4.6,4.6h-31.7c-9.6,0-17.5,7.8-17.5,17.5v49.9C342,386.8,293.1,435.7,233,435.7z"/>
			</g>
			<g>
				<path class="st0" d="M233,353.4c-14.7,0-26.7-12-26.7-26.7V124.2c0-2.5,2.1-4.6,4.6-4.6c2.5,0,4.6,2.1,4.6,4.6v202.5
					c0,9.6,7.8,17.5,17.5,17.5c9.6,0,17.5-7.8,17.5-17.5v-49.9c0-60.1,48.9-109,109-109h31.7c2.5,0,4.6,2.1,4.6,4.6
					s-2.1,4.6-4.6,4.6h-31.7c-55,0-99.8,44.8-99.8,99.8v49.9C259.7,341.4,247.8,353.4,233,353.4z"/>
			</g>
		</g>
		<g>
			<path class="st0" d="M223.9,128.8H115.7c-2.5,0-4.6-2.1-4.6-4.6V81.9c0-2.5,2.1-4.6,4.6-4.6h108.1c2.5,0,4.6,2.1,4.6,4.6v42.3
				C228.5,126.7,226.4,128.8,223.9,128.8z M120.3,119.6h98.9V86.5h-98.9V119.6z"/>
		</g>
	</g>
	<g>
		<path class="st0" d="M337.4,289.7h-82.3c-2.5,0-4.6-2.1-4.6-4.6c0-2.5,2.1-4.6,4.6-4.6h82.3c2.5,0,4.6,2.1,4.6,4.6
			C342,287.6,340,289.7,337.4,289.7z"/>
	</g>
	<g>
		<path class="st0" d="M211,289.7h-82.3c-2.5,0-4.6-2.1-4.6-4.6c0-2.5,2.1-4.6,4.6-4.6H211c2.5,0,4.6,2.1,4.6,4.6
			C215.6,287.6,213.5,289.7,211,289.7z"/>
	</g>
</g>
</svg>
