<?xml version="1.0" encoding="utf-8"?>
<!-- Generator: Adobe Illustrator 24.2.0, SVG Export Plug-In . SVG Version: 6.00 Build 0)  -->
<svg version="1.1" id="圖層_1" xmlns="http://www.w3.org/2000/svg" xmlns:xlink="http://www.w3.org/1999/xlink" x="0px" y="0px"
	 viewBox="0 0 500 500" style="enable-background:new 0 0 500 500;" xml:space="preserve">
<style type="text/css">
	.st0{fill:#FFFFFF;}
</style>
<g>
	<g>
		<path class="st0" d="M231.6,298H90.3v-59.7c0-14.6,11.9-26.5,26.5-26.5h73V225h-73c-7.3,0-13.3,6-13.3,13.3v46.5h128V298H231.6z"
			/>
	</g>
	<g>
		<path class="st0" d="M157,404.2h-26.9c-14.6,0-26.5-11.9-26.5-26.5v-86.3h13.3v86.3c0,7.3,6,13.3,13.3,13.3H157V404.2z"/>
	</g>
	<g>
		<g>
			<polygon class="st0" points="248.5,255.5 230.9,224.9 207.1,218.5 182,175.1 190.5,143.5 218.8,127.1 250.4,135.6 275.5,179.1 
				269.1,202.9 277.8,217.9 266.3,224.5 254.8,204.8 261.3,180.9 241.7,147 220.7,141.4 201.9,152.2 196.3,173.2 215.8,207.1 
				239.7,213.5 260,248.8 			"/>
		</g>
		<g>
			<g>
				<path class="st0" d="M356.5,444c-15.8,0-31.2-8.2-39.6-22.8l-20.5-35.6l11.5-6.6l20.5,35.6c8.9,15.5,28.8,20.8,44.3,11.8
					l0.4-0.2l0,0c15.2-9,20.4-28.7,11.5-44.1l-49-85l11.5-6.6l49,84.9c12.5,21.6,5.2,49.4-16.2,62.1c-0.3,0.2-0.6,0.3-0.9,0.5
					C371.9,442.1,364.2,444,356.5,444z M378.5,438.3L378.5,438.3L378.5,438.3z"/>
			</g>
		</g>
		<g>
			<g>
				
					<rect x="340.7" y="325.2" transform="matrix(0.8661 -0.4999 0.4999 0.8661 -144.7111 224.8595)" class="st0" width="13.3" height="114.6"/>
			</g>
		</g>
	</g>
	<g>
		<path class="st0" d="M229.7,444c-11.3,0-22.4-3.6-31.7-10.4c-19.1-14-26.6-40.1-17.8-62.1c7.9-19.7,26.6-32.8,47.5-33.6l83-143.8
			l-8.5-31.6c-3.2-11.9,3.9-24.1,15.8-27.3l38.9-10.4l9.1,11.9l-14.1,24.5l15.6,9l14.1-24.5l14.9,2l10.4,38.9
			c3.2,11.9-3.9,24.1-15.8,27.3l-31.6,8.5l-83,143.8c8.5,16.1,8.3,35.4-0.9,51.4c-7.5,13.1-20.3,22.3-35.1,25.4
			C237,443.6,233.3,444,229.7,444z M229.6,351.1c-16.4,0-30.9,9.8-37.1,25.3c-6.6,16.4-0.9,36,13.4,46.5c9.3,6.9,20.7,9.3,31.9,7
			c11.1-2.3,20.7-9.3,26.3-19.1c7.4-12.8,7.1-28.6-0.8-41.2l-2.1-3.4l89.7-155.3l36.9-9.9c4.8-1.3,7.7-6.2,6.4-11l-7.2-26.9
			l-14.6,25.2L333.8,166l14.5-25.2l-26.9,7.2c-4.8,1.3-7.7,6.2-6.4,11l9.9,36.9l-89.7,155.3l-4-0.2
			C230.7,351.1,230.2,351.1,229.6,351.1z"/>
	</g>
	<g>
		<path class="st0" d="M214.4,412.7c-12-8.4-14.9-25-6.5-37s25-14.9,37-6.5l-7.6,10.9c-6-4.2-14.3-2.7-18.5,3.3s-2.7,14.3,3.3,18.5
			L214.4,412.7z"/>
	</g>
</g>
</svg>
