<?xml version="1.0" encoding="utf-8"?>
<!-- Generator: Adobe Illustrator 24.2.0, SVG Export Plug-In . SVG Version: 6.00 Build 0)  -->
<svg version="1.1" id="圖層_1" xmlns="http://www.w3.org/2000/svg" xmlns:xlink="http://www.w3.org/1999/xlink" x="0px" y="0px"
	 viewBox="0 0 500 500" style="enable-background:new 0 0 500 500;" xml:space="preserve">
<style type="text/css">
	.st0{fill:#FFFFFF;}
</style>
<g>
	<g>
		<g>
			<path class="st0" d="M88.4,327H43.7c-2.8,0-5.1-2.3-5.1-5.1V207.7c0-2.8,2.3-5.1,5.1-5.1h44.7c2.8,0,5.1,2.3,5.1,5.1v114.2
				C93.5,324.7,91.2,327,88.4,327z M48.8,316.8h34.5v-104H48.8V316.8z"/>
		</g>
		<g>
			<path class="st0" d="M465.4,327h-44.7c-2.8,0-5.1-2.3-5.1-5.1V207.7c0-2.8,2.3-5.1,5.1-5.1h44.7c2.8,0,5.1,2.3,5.1,5.1v114.2
				C470.5,324.7,468.2,327,465.4,327z M425.8,316.8h34.5v-104h-34.5V316.8z"/>
		</g>
		<g>
			<g>
				<path class="st0" d="M149.9,313.3H88.4c-2.8,0-5.1-2.3-5.1-5.1c0-2.8,2.3-5.1,5.1-5.1h61.4c2.8,0,5.1,2.3,5.1,5.1
					C155,311.1,152.7,313.3,149.9,313.3z"/>
			</g>
			<g>
				<path class="st0" d="M420.7,313.3h-61.4c-2.8,0-5.1-2.3-5.1-5.1c0-2.8,2.3-5.1,5.1-5.1h61.4c2.8,0,5.1,2.3,5.1,5.1
					C425.8,311.1,423.5,313.3,420.7,313.3z"/>
			</g>
			<g>
				<path class="st0" d="M420.7,226.4h-60.8c-2.8,0-5.1-2.3-5.1-5.1s2.3-5.1,5.1-5.1h60.8c2.8,0,5.1,2.3,5.1,5.1
					C425.8,224.1,423.5,226.4,420.7,226.4z"/>
			</g>
			<g>
				<path class="st0" d="M149.9,226.4H88.4c-2.8,0-5.1-2.3-5.1-5.1s2.3-5.1,5.1-5.1h61.4c2.8,0,5.1,2.3,5.1,5.1
					C155,224.1,152.7,226.4,149.9,226.4z"/>
			</g>
		</g>
	</g>
	<g>
		<g>
			<g>
				<path class="st0" d="M254.6,279.6c-8.2,0-14.8-6.7-14.8-14.8c0-8.2,6.7-14.8,14.8-14.8c8.2,0,14.8,6.7,14.8,14.8
					C269.4,273,262.7,279.6,254.6,279.6z M254.6,260.1c-2.6,0-4.6,2.1-4.6,4.6c0,2.6,2.1,4.6,4.6,4.6c2.6,0,4.6-2.1,4.6-4.6
					S257.1,260.1,254.6,260.1z"/>
			</g>
			<g>
				<path class="st0" d="M254.6,353.7c-49,0-88.9-39.9-88.9-88.9s39.9-88.9,88.9-88.9s88.9,39.9,88.9,88.9S303.6,353.7,254.6,353.7z
					 M254.6,186c-43.4,0-78.8,35.3-78.8,78.8c0,43.4,35.3,78.8,78.8,78.8s78.8-35.3,78.8-78.8C333.3,221.4,298,186,254.6,186z"/>
			</g>
			<g>
				<g>
					<path class="st0" d="M239.9,352.3c-0.5,0-1-0.1-1.4-0.2c-2.7-0.8-4.2-3.6-3.4-6.3c8.2-27.7,0.6-57.7-19.8-78.1
						c-11.5-11.5-26-19-41.9-21.9c-2.8-0.5-4.6-3.1-4.1-5.9c0.5-2.8,3.1-4.6,5.9-4.1c18,3.2,34.4,11.7,47.3,24.7
						c23.1,23.1,31.7,56.9,22.4,88.2C244.2,350.9,242.1,352.3,239.9,352.3z"/>
				</g>
				<g>
					<path class="st0" d="M257.8,243.2c-26.6,0-51.6-11.7-68.5-32.2c-1.8-2.2-1.5-5.4,0.7-7.2s5.4-1.5,7.2,0.7
						c15,18.1,37.1,28.5,60.7,28.5c21.8,0,42.8-9.1,57.6-25.1c1.9-2.1,5.1-2.2,7.2-0.3s2.2,5.1,0.3,7.2
						C306.1,232.8,282.4,243.2,257.8,243.2z"/>
				</g>
				<g>
					<path class="st0" d="M269.3,352.6c-2.2,0-4.2-1.4-4.9-3.6c-9.4-31.4-0.9-65.3,22.3-88.5c12.6-12.6,28.5-21,45.9-24.4
						c2.8-0.5,5.4,1.3,6,4c0.5,2.8-1.3,5.4-4,6c-15.4,3-29.5,10.5-40.6,21.6c-20.5,20.5-28.1,50.5-19.8,78.4
						c0.8,2.7-0.7,5.5-3.4,6.3C270.2,352.5,269.8,352.6,269.3,352.6z"/>
				</g>
			</g>
		</g>
		<g>
			<path class="st0" d="M254.6,383.2c-65.3,0-118.4-53.1-118.4-118.4s53.1-118.4,118.4-118.4S373,199.5,373,264.8
				S319.9,383.2,254.6,383.2z M254.6,156.5c-59.7,0-108.3,48.6-108.3,108.3s48.6,108.3,108.3,108.3s108.3-48.6,108.3-108.3
				C362.8,205.1,314.3,156.5,254.6,156.5z"/>
		</g>
	</g>
</g>
</svg>
