<?xml version="1.0" encoding="utf-8"?>
<!-- Generator: Adobe Illustrator 24.2.0, SVG Export Plug-In . SVG Version: 6.00 Build 0)  -->
<svg version="1.1" id="圖層_1" xmlns="http://www.w3.org/2000/svg" xmlns:xlink="http://www.w3.org/1999/xlink" x="0px" y="0px"
	 viewBox="0 0 500 500" style="enable-background:new 0 0 500 500;" xml:space="preserve">
<style type="text/css">
	.st0{fill:#FFFFFF;}
</style>
<g>
	<g>
		<path class="st0" d="M257.7,397.9c-37,0-67.2-30.1-67.2-67.2c0-4.4,0.4-8.9,1.3-13.2c0-0.1,0-0.3,0.1-0.4l34.9-166.4
			c3-14.6,16-25.2,30.9-25.2h181.9c3.8,0,6.8,3.1,6.8,6.8c0,3.8-3.1,6.8-6.8,6.8H257.7c-8.5,0-15.9,6-17.5,14.3l-34.9,166.2
			c0,0.1,0,0.2-0.1,0.4c-0.7,3.5-1.1,7.1-1.1,10.7c0,29.5,24,53.5,53.5,53.5s53.5-24,53.5-53.5c0-3.6-0.4-7.2-1.1-10.7
			c0-0.1,0-0.3-0.1-0.4c-0.1-0.4-0.1-0.8-0.1-1.2c0-3.8,3.1-6.8,6.8-6.8c3.4,0,6.3,2.5,6.7,5.8c0.9,4.3,1.3,8.8,1.3,13.2
			C324.9,367.8,294.7,397.9,257.7,397.9z"/>
	</g>
	<g>
		<path class="st0" d="M134.6,397.9c-37,0-67.2-30.1-67.2-67.2c0-12.7,3.6-25.1,10.4-35.8c0.2-0.4,0.6-1,1-1.5L79,293l68.5-104.4
			H74.2c-3.8,0-6.8-3.1-6.8-6.8c0-3.8,3.1-6.8,6.8-6.8h85.9c2.5,0,4.8,1.4,6,3.6c1.2,2.2,1.1,4.9-0.3,7L90.1,301
			c-0.2,0.3-0.5,0.7-0.7,1c-5.5,8.7-8.4,18.6-8.4,28.7c0,29.5,24,53.5,53.5,53.5c25.2,0,47.2-17.9,52.4-42.5c0-0.1,0-0.1,0-0.2
			l4.8-23.8c0.7-3.7,4.3-6.1,8-5.3c3.7,0.7,6.1,4.3,5.3,8l-4.7,23.5c0,0.1,0,0.2-0.1,0.3C194,375.3,166.3,397.9,134.6,397.9z"/>
	</g>
	<g>
		<path class="st0" d="M231.4,168.8c-0.5,0-1.1-0.1-1.7-0.2c-3.7-0.9-5.9-4.6-5-8.3c1.1-4.2-0.3-9.3-3.5-13.5
			c-3.8-4.9-9.4-7.7-15.4-7.7H74.2c-3.8,0-6.8-3.1-6.8-6.8c0-3.8,3.1-6.8,6.8-6.8h131.6c10.2,0,19.7,4.7,26.1,13
			c5.8,7.5,8.1,16.9,6,25.2C237.2,166.7,234.5,168.8,231.4,168.8z"/>
	</g>
	<g>
		<path class="st0" d="M380.8,397.9c-31.7,0-59.4-22.6-65.8-53.6c0-0.1,0-0.2-0.1-0.3l-36.3-180.6c0-0.2-0.1-0.5-0.1-0.8
			c-0.3-1.9-0.5-3.7-0.5-5.6c0-17.4,14.1-31.5,31.5-31.5h130.8c3.8,0,6.8,3.1,6.8,6.8c0,3.8-3.1,6.8-6.8,6.8H309.5
			c-9.9,0-17.9,8-17.9,17.9c0,1.1,0.1,2.3,0.3,3.4c0,0.2,0.1,0.5,0.1,0.7l36.3,180.4c0,0.1,0,0.2,0,0.2
			c5.2,24.6,27.2,42.5,52.4,42.5c29.5,0,53.5-24,53.5-53.5c0-10.2-2.9-20-8.2-28.5c-0.5-0.8-24.8-37.8-72-109.8l-4.5-6.9
			c-1.4-2.1-1.5-4.8-0.3-7c1.2-2.2,3.5-3.6,6-3.6h85c3.8,0,6.8,3.1,6.8,6.8c0,3.8-3.1,6.8-6.8,6.8h-72.4
			c69.6,106.1,69.7,106.3,69.8,106.4c6.7,10.6,10.3,23,10.3,35.7C448,367.8,417.9,397.9,380.8,397.9z"/>
	</g>
	<g>
		<path class="st0" d="M257.7,397.9c-37,0-67.2-30.1-67.2-67.2s30.1-67.2,67.2-67.2s67.2,30.1,67.2,67.2S294.7,397.9,257.7,397.9z
			 M257.7,277.2c-29.5,0-53.5,24-53.5,53.5c0,29.5,24,53.5,53.5,53.5s53.5-24,53.5-53.5C311.2,301.2,287.2,277.2,257.7,277.2z"/>
	</g>
	<g>
		<path class="st0" d="M134.6,397.9c-37,0-67.2-30.1-67.2-67.2s30.1-67.2,67.2-67.2s67.2,30.1,67.2,67.2S171.6,397.9,134.6,397.9z
			 M134.6,277.2c-29.5,0-53.5,24-53.5,53.5c0,29.5,24,53.5,53.5,53.5s53.5-24,53.5-53.5C188.1,301.2,164.1,277.2,134.6,277.2z"/>
	</g>
	<g>
		<path class="st0" d="M380.8,397.9c-37,0-67.2-30.1-67.2-67.2s30.1-67.2,67.2-67.2s67.2,30.1,67.2,67.2S417.9,397.9,380.8,397.9z
			 M380.8,277.2c-29.5,0-53.5,24-53.5,53.5c0,29.5,24,53.5,53.5,53.5s53.5-24,53.5-53.5C434.4,301.2,410.3,277.2,380.8,277.2z"/>
	</g>
	<g>
		<path class="st0" d="M134.6,373.4c-23.5,0-42.6-19.1-42.6-42.6c0-23.5,19.1-42.6,42.6-42.6c23.5,0,42.6,19.1,42.6,42.6
			C177.2,354.2,158.1,373.4,134.6,373.4z M134.6,301.7c-16,0-29,13-29,29c0,16,13,29,29,29c16,0,29-13,29-29
			C163.6,314.7,150.6,301.7,134.6,301.7z"/>
	</g>
	<g>
		<path class="st0" d="M257.7,373.4c-23.5,0-42.6-19.1-42.6-42.6c0-23.5,19.1-42.6,42.6-42.6s42.6,19.1,42.6,42.6
			C300.3,354.2,281.2,373.4,257.7,373.4z M257.7,301.7c-16,0-29,13-29,29c0,16,13,29,29,29s29-13,29-29
			C286.7,314.7,273.7,301.7,257.7,301.7z"/>
	</g>
	<g>
		<path class="st0" d="M380.8,373.4c-23.5,0-42.6-19.1-42.6-42.6c0-23.5,19.1-42.6,42.6-42.6c23.5,0,42.6,19.1,42.6,42.6
			C423.5,354.2,404.3,373.4,380.8,373.4z M380.8,301.7c-16,0-29,13-29,29c0,16,13,29,29,29c16,0,29-13,29-29
			C409.8,314.7,396.8,301.7,380.8,301.7z"/>
	</g>
</g>
</svg>
