<?xml version="1.0" encoding="utf-8"?>
<!-- Generator: Adobe Illustrator 24.1.2, SVG Export Plug-In . SVG Version: 6.00 Build 0)  -->
<svg version="1.1" id="圖層_1" xmlns="http://www.w3.org/2000/svg" xmlns:xlink="http://www.w3.org/1999/xlink" x="0px" y="0px"
	 viewBox="0 0 500 500" style="enable-background:new 0 0 500 500;" xml:space="preserve">
<style type="text/css">
	.st0{fill:#3D5D89;}
</style>
<g>
	<g>
		<g>
			<g>
				<path class="st0" d="M219.6,359H82.9c-2.4,0-4.3-1.9-4.3-4.3v-87.5c0-2.4,1.9-4.3,4.3-4.3h136.8c2.4,0,4.3,1.9,4.3,4.3
					c0,2.4-1.9,4.3-4.3,4.3H87.1v79h132.5c2.4,0,4.3,1.9,4.3,4.3C223.9,357,222,359,219.6,359z"/>
			</g>
			<g>
				<path class="st0" d="M417.2,359H280.4c-2.4,0-4.3-1.9-4.3-4.3c0-2.4,1.9-4.3,4.3-4.3h132.5v-79H280.4c-2.4,0-4.3-1.9-4.3-4.3
					c0-2.4,1.9-4.3,4.3-4.3h136.8c2.4,0,4.3,1.9,4.3,4.3v87.5C421.4,357,419.5,359,417.2,359z"/>
			</g>
		</g>
		<g>
			<path class="st0" d="M462.1,372.7h-44.9c-2.4,0-4.3-1.9-4.3-4.3V253.5c0-2.4,1.9-4.3,4.3-4.3h44.9c2.4,0,4.3,1.9,4.3,4.3v114.9
				C466.4,370.7,464.5,372.7,462.1,372.7z M421.4,364.1h36.4V257.8h-36.4V364.1z"/>
		</g>
		<g>
			<path class="st0" d="M82.9,372.7h-45c-2.4,0-4.3-1.9-4.3-4.3V253.5c0-2.4,1.9-4.3,4.3-4.3h45c2.4,0,4.3,1.9,4.3,4.3v114.9
				C87.1,370.7,85.2,372.7,82.9,372.7z M42.2,364.1h36.4V257.8H42.2V364.1z"/>
		</g>
	</g>
	<g>
		<g>
			<g>
				<path class="st0" d="M250,212.9c-29.3,0-53.1-23.8-53.1-53.1c0-29.3,23.8-53.1,53.1-53.1c29.3,0,53.1,23.8,53.1,53.1
					C303.1,189.1,279.3,212.9,250,212.9z M250,115.3c-24.6,0-44.6,20-44.6,44.5c0,24.6,20,44.6,44.6,44.6c24.6,0,44.5-20,44.5-44.6
					C294.5,135.2,274.6,115.3,250,115.3z"/>
			</g>
			<g>
				<path class="st0" d="M112.4,191.8c-1,0-2.1-0.4-2.9-1.1c-0.9-0.8-1.4-2-1.4-3.2V132c0-1.2,0.5-2.4,1.4-3.2
					c0.9-0.8,2.1-1.2,3.3-1.1l92.3,9.7c2.3,0.2,4,2.3,3.8,4.7c-0.2,2.3-2.3,4-4.7,3.8l-87.6-9.2v46.1l87.6-9.2
					c2.3-0.3,4.4,1.5,4.7,3.8c0.2,2.3-1.5,4.4-3.8,4.7l-92.3,9.7C112.7,191.8,112.5,191.8,112.4,191.8z"/>
			</g>
			<g>
				<path class="st0" d="M387.6,191.8c-0.1,0-0.3,0-0.4,0l-92.3-9.7c-2.3-0.2-4-2.3-3.8-4.7c0.2-2.3,2.3-4.1,4.7-3.8l87.6,9.2v-46.1
					l-87.6,9.2c-2.3,0.2-4.4-1.5-4.7-3.8c-0.2-2.3,1.5-4.4,3.8-4.7l92.3-9.7c1.2-0.1,2.4,0.3,3.3,1.1c0.9,0.8,1.4,2,1.4,3.2v55.5
					c0,1.2-0.5,2.4-1.4,3.2C389.7,191.4,388.7,191.8,387.6,191.8z"/>
			</g>
		</g>
		<g>
			<path class="st0" d="M235.6,257.8c-2.4,0-4.3-1.9-4.3-4.3v-47c0-2.4,1.9-4.3,4.3-4.3c2.4,0,4.3,1.9,4.3,4.3v47
				C239.9,255.9,238,257.8,235.6,257.8z"/>
		</g>
		<g>
			<path class="st0" d="M264.4,257.8c-2.4,0-4.3-1.9-4.3-4.3v-47c0-2.4,1.9-4.3,4.3-4.3c2.4,0,4.3,1.9,4.3,4.3v47
				C268.6,255.9,266.7,257.8,264.4,257.8z"/>
		</g>
		<g>
			<path class="st0" d="M280.4,372.7h-60.8c-2.4,0-4.3-1.9-4.3-4.3V253.5c0-2.4,1.9-4.3,4.3-4.3h60.8c2.4,0,4.3,1.9,4.3,4.3v114.9
				C284.6,370.7,282.7,372.7,280.4,372.7z M223.9,364.1h52.2V257.8h-52.2V364.1z"/>
		</g>
	</g>
</g>
</svg>
