<?xml version="1.0" encoding="utf-8"?>
<!-- Generator: Adobe Illustrator 24.1.2, SVG Export Plug-In . SVG Version: 6.00 Build 0)  -->
<svg version="1.1" id="圖層_1" xmlns="http://www.w3.org/2000/svg" xmlns:xlink="http://www.w3.org/1999/xlink" x="0px" y="0px"
	 viewBox="0 0 500 500" style="enable-background:new 0 0 500 500;" xml:space="preserve">
<style type="text/css">
	.st0{fill:#3D5D89;}
</style>
<g>
	<g>
		<g>
			<path class="st0" d="M251.1,289.2c-58.2,0-105.5-47.3-105.5-105.5c0-58.2,47.3-105.5,105.5-105.5c58.2,0,105.5,47.3,105.5,105.5
				C356.6,241.8,309.2,289.2,251.1,289.2z M251.1,87.5c-53,0-96.1,43.1-96.1,96.1c0,53,43.1,96.1,96.1,96.1s96.1-43.1,96.1-96.1
				C347.2,130.7,304.1,87.5,251.1,87.5z"/>
		</g>
		<g>
			<path class="st0" d="M251.1,264.6c-35.7,0-67.7-23.9-77.7-58.2c-0.1-0.4-0.2-0.9-0.2-1.3c0-4.7,1.3-4.7,14.1-4.7H238
				c2.6,0,4.7,2.1,4.7,4.7c0,2.6-2.1,4.7-4.7,4.7c0,0.1-38,0-53.5,0c10.6,27,37.1,45.4,66.6,45.4c29.4,0,56-18.4,66.6-45.4h-53.5
				c-2.6,0-4.7-2.1-4.7-4.7c0-2.6,2.1-4.7,4.7-4.7h60.1c1.5,0,2.9,0.7,3.8,1.9c0.9,1.2,1.2,2.7,0.8,4.1
				C318.7,240.6,286.8,264.6,251.1,264.6z"/>
		</g>
		<g>
			<g>
				<path class="st0" d="M251,222.8c-2.4,0-4.8-0.5-7.1-1.5c-9-3.9-13.1-14.4-9.2-23.4c3.9-9,14.4-13.1,23.4-9.2
					c9,3.9,13.1,14.4,9.2,23.4l0,0C264.4,218.8,257.9,222.8,251,222.8z M251.1,196.7c-3.2,0-6.3,1.9-7.7,5c-1.8,4.2,0.1,9.1,4.3,11
					c4.2,1.8,9.1-0.1,11-4.3c0,0,0,0,0,0c1.8-4.2-0.1-9.1-4.3-11C253.3,196.9,252.2,196.7,251.1,196.7z"/>
			</g>
			<g>
				<path class="st0" d="M263,215c-0.3,0-0.6,0-1-0.1c-2.5-0.5-4.2-3-3.6-5.6l8.4-40.4l-23.9,33.7c-1.5,2.1-4.5,2.6-6.6,1.1
					c-2.1-1.5-2.6-4.4-1.1-6.6l36.9-52c1.3-1.8,3.7-2.5,5.7-1.6c2,0.9,3.2,3.1,2.7,5.3l-13,62.5C267.2,213.4,265.2,215,263,215z"/>
			</g>
		</g>
		<g>
			<g>
				<path class="st0" d="M212.1,149.9c-1.2,0-2.4-0.5-3.4-1.4l-14.9-15.1c-1.8-1.8-1.8-4.8,0.1-6.7c1.9-1.8,4.8-1.8,6.7,0.1
					l14.9,15.1c1.8,1.8,1.8,4.8-0.1,6.7C214.5,149.4,213.3,149.9,212.1,149.9z"/>
			</g>
			<g>
				<path class="st0" d="M251.1,131.4c-2.6,0-4.7-2.1-4.7-4.7v-19.2c0-2.6,2.1-4.7,4.7-4.7c2.6,0,4.7,2.1,4.7,4.7v19.2
					C255.8,129.3,253.7,131.4,251.1,131.4z"/>
			</g>
			<g>
				<path class="st0" d="M290,149.9c-1.2,0-2.4-0.4-3.3-1.3c-1.9-1.8-1.9-4.8-0.1-6.7l14.9-15.1c1.8-1.9,4.8-1.9,6.7-0.1
					c1.9,1.8,1.9,4.8,0.1,6.7l-14.9,15.1C292.4,149.4,291.2,149.9,290,149.9z"/>
			</g>
			<g>
				<path class="st0" d="M327.2,188.4C327.2,188.4,327.2,188.4,327.2,188.4l-18.5-0.1c-2.6,0-4.7-2.1-4.7-4.7c0-2.6,2.1-4.7,4.7-4.7
					c0,0,0,0,0,0l13.6,0.1c-2.4-37.2-33.5-66.8-71.3-66.8c-37.8,0-68.9,29.5-71.3,66.8l13.6-0.1c0,0,0,0,0,0c2.6,0,4.7,2.1,4.7,4.7
					c0,2.6-2.1,4.7-4.7,4.7l-18.4,0.1c0,0,0,0,0,0c-1.2,0-2.4-0.5-3.3-1.4c-0.9-0.9-1.4-2.1-1.4-3.3c0-44.6,36.3-80.9,80.9-80.9
					c44.6,0,80.9,36.3,80.9,80.9c0,1.3-0.5,2.5-1.4,3.3C329.7,187.9,328.5,188.4,327.2,188.4z"/>
			</g>
		</g>
	</g>
	<g>
		<path class="st0" d="M297.5,325.7h-92.8c-2.6,0-4.7-2.1-4.7-4.7v-47.9c0-2.6,2.1-4.7,4.7-4.7s4.7,2.1,4.7,4.7v43.2h83.4v-43.2
			c0-2.6,2.1-4.7,4.7-4.7c2.6,0,4.7,2.1,4.7,4.7V321C302.2,323.6,300.1,325.7,297.5,325.7z"/>
	</g>
	<g>
		<path class="st0" d="M347,421.9H155.1c-2.6,0-4.7-2.1-4.7-4.7v-34.1c0-1.9,1.1-3.5,2.8-4.3l63.6-28.5V321c0-2.6,2.1-4.7,4.7-4.7
			c2.6,0,4.7,2.1,4.7,4.7v32.3c0,1.9-1.1,3.5-2.8,4.3l-63.6,28.5v26.4h182.4v-26.4l-63.6-28.5c-1.7-0.8-2.8-2.4-2.8-4.3V321
			c0-2.6,2.1-4.7,4.7-4.7c2.6,0,4.7,2.1,4.7,4.7v29.3l63.6,28.5c1.7,0.8,2.8,2.4,2.8,4.3v34.1C351.7,419.8,349.6,421.9,347,421.9z"
			/>
	</g>
</g>
</svg>
