<?xml version="1.0" encoding="utf-8"?>
<!-- Generator: Adobe Illustrator 24.1.2, SVG Export Plug-In . SVG Version: 6.00 Build 0)  -->
<svg version="1.1" id="圖層_1" xmlns="http://www.w3.org/2000/svg" xmlns:xlink="http://www.w3.org/1999/xlink" x="0px" y="0px"
	 viewBox="0 0 180 31" style="enable-background:new 0 0 180 31;" xml:space="preserve">
<style type="text/css">
	.st0{fill-rule:evenodd;clip-rule:evenodd;fill:#FFFFFF;}
	.st1{filter:url(#Adobe_OpacityMaskFilter);}
	.st2{mask:url(#b_1_);fill-rule:evenodd;clip-rule:evenodd;fill:#FFFFFF;}
</style>
<g>
	<path class="st0" d="M30.4,13.6l1.7-9.7h-5.4l-4,22.9H28l0.8-4.6l3-3.2l5,7.8h6.7l-7.6-11.8L46.3,3.9h-6.9L30.4,13.6z M16.9,3.9
		l-9.1,9.7l1.7-9.7H4L0,26.8h5.4l0.8-4.6l3-3.2l5,7.8h6.7l-7.6-11.8L23.8,3.9H16.9z"/>
	<g transform="translate(45 -.476)">
		<defs>
			<filter id="Adobe_OpacityMaskFilter" filterUnits="userSpaceOnUse" x="0.7" y="0.5" width="20.3" height="28.4">
				<feColorMatrix  type="matrix" values="1 0 0 0 0  0 1 0 0 0  0 0 1 0 0  0 0 0 1 0"/>
			</filter>
		</defs>
		<mask maskUnits="userSpaceOnUse" x="0.7" y="0.5" width="20.3" height="28.4" id="b_1_">
			<g class="st1">
				<path id="a_1_" class="st0" d="M0.7,0.5H21v28.4H0.7L0.7,0.5z"/>
			</g>
		</mask>
		<path class="st2" d="M8.1,28.8C8.2,28.8,8.2,28.8,8.1,28.8c1.8-1.1,11.6-9.3,10.5-11.3c-0.7-1.2-3.1-0.7-8.1,0.9
			c-11.5,3.6,0.3-11,9.7-16.8c0.2-0.1,0.4-0.2,0.7-0.3c-1.6-0.6-3.3-0.9-5-0.9C7.6,0.5,0.7,7.3,0.7,15.7C0.7,21.3,3.7,26.2,8.1,28.8
			"/>
	</g>
	<path class="st0" d="M70.1,3C64.4,6.8,53.2,16.4,61,14c5.3-1.6,8.7-1.5,9.3,0.1c0.7,2.1-2.9,7.5-12.9,13.7c-0.8,0.5-1.6,1-2.4,1.4
		c1.9,0.8,4,1.3,6.1,1.3c8.4,0,15.3-6.8,15.3-15.3C76.3,10.3,73.9,5.8,70.1,3 M85.8,22.6H89l-0.7,4.2h-5.1c-2.8,0-4.8-1.9-4.5-4.2
		l3.3-18.7h5.8l-0.4,2.4H92l-0.7,4.2h-4.4l-2.2,11.2C84.7,22.2,85.2,22.6,85.8,22.6 M92,26.8l2.6-16.3c0.4-2.3,3.3-4.2,6.5-4.2h4.6
		l-0.8,4.2h-3.2c-0.7,0-1.3,0.5-1.4,1l-2.5,15.3C97.8,26.8,92,26.8,92,26.8z M113.4,14.4h5.9l0.5-2.9c0-0.6-0.4-1-1-1h-3.5
		c-0.7,0-1.2,0.5-1.3,1L113.4,14.4z M112.7,18.6l-0.5,3.4c-0.1,0.5,0.4,0.9,1,0.9h10.5l-0.7,3.9h-11.7c-3.2,0-5.5-1.9-5.2-4.2l2-12
		c0.4-2.3,3.3-4.3,6.5-4.3h5.9c3.2,0,5.6,1.9,5.2,4.3l-1.3,8L112.7,18.6L112.7,18.6z M139.7,17.7H135c-0.7,0-1.2,0.4-1.3,0.9
		l-0.5,3.1c-0.1,0.5,0.4,0.9,1,0.9h4.7L139.7,17.7z M146.8,10.5l-2.7,16.2h-11.7c-3.2,0-5.5-1.9-5.2-4.2l0.7-4.9
		c0.4-2.3,3.3-3.9,6.5-3.9h5.9l0.5-2.4c0.1-0.5-0.4-0.9-1-0.9h-10.5l0.6-4.2h11.7C144.8,6.3,147.2,8.2,146.8,10.5z M148.4,26.8
		l3-20.5h23.4c3.2,0,5.6,1.9,5.2,4.3l-2.4,16.2h-5.9l2.2-15.3c0.1-0.5-0.4-1-1-1h-4.7l-2.4,16.3h-5.8l2.4-16.3h-5.9l-2.4,16.3H148.4
		z"/>
</g>
</svg>
