<?xml version="1.0" encoding="utf-8"?>
<!-- Generator: Adobe Illustrator 24.1.2, SVG Export Plug-In . SVG Version: 6.00 Build 0)  -->
<svg version="1.1" id="圖層_1" xmlns="http://www.w3.org/2000/svg" xmlns:xlink="http://www.w3.org/1999/xlink" x="0px" y="0px"
	 viewBox="0 0 141.7 141.7" style="enable-background:new 0 0 141.7 141.7;" xml:space="preserve">
<style type="text/css">
	.st0{fill:#040000;}
</style>
<g>
	<path class="st0" d="M62.1,76.6v-4.9c0-0.4-0.1-0.7-0.4-1l-5-5c0.5-0.9,0.9-1.9,0.9-3c0-3.2-2.6-5.7-5.7-5.7
		c-3.2,0-5.7,2.6-5.7,5.7s2.6,5.7,5.7,5.7c1,0,2-0.3,2.8-0.8l4.6,4.6v4.3c-2.5,0.6-4.3,2.9-4.3,5.5c0,3.2,2.6,5.7,5.7,5.7
		c3.2,0,5.7-2.6,5.7-5.7C66.4,79.4,64.5,77.2,62.1,76.6z M51.8,65.6c-1.6,0-2.9-1.3-2.9-2.9c0-1.6,1.3-2.9,2.9-2.9
		c1.6,0,2.9,1.3,2.9,2.9C54.7,64.3,53.4,65.6,51.8,65.6z M60.7,85c-1.6,0-2.9-1.3-2.9-2.9c0-1.6,1.3-2.9,2.9-2.9
		c1.6,0,2.9,1.3,2.9,2.9C63.6,83.7,62.3,85,60.7,85z"/>
	<path class="st0" d="M124.5,62.9L111.4,62c-1.1-5.1-3.1-9.9-5.9-14.3l8.6-9.9c0.5-0.6,0.5-1.4-0.1-1.9l-8.9-8.9
		c-0.5-0.5-1.4-0.5-1.9-0.1l-9.9,8.6c-4.4-2.9-9.2-4.9-14.3-5.9l-0.9-13.1c0-0.7-0.7-1.3-1.4-1.3H64.2c-0.7,0-1.4,0.6-1.4,1.3
		L62,29.7c-5.1,1.1-9.9,3.1-14.3,5.9L37.8,27c-0.6-0.5-1.4-0.5-1.9,0.1L27,35.9c-0.5,0.5-0.6,1.4-0.1,1.9l8.6,9.9
		c-2.9,4.4-4.9,9.2-5.9,14.3l-13.1,0.9c-0.7,0-1.3,0.7-1.3,1.4v12.6c0,0.7,0.6,1.4,1.3,1.4l13.1,0.9c1.1,5.1,3.1,9.9,5.9,14.3
		l-8.6,9.9c-0.5,0.6-0.5,1.4,0.1,1.9l8.9,8.9c0.5,0.5,1.4,0.6,1.9,0.1l9.9-8.6c4.4,2.9,9.2,4.9,14.3,5.9l0.9,13.1
		c0,0.7,0.7,1.3,1.4,1.3h12.6c0.7,0,1.4-0.6,1.4-1.3l0.9-13.1c5.1-1.1,9.9-3.1,14.3-5.9l9.9,8.6c0.6,0.5,1.4,0.5,1.9-0.1l8.9-8.9
		c0.5-0.5,0.6-1.4,0.1-1.9l-8.6-9.9c2.9-4.4,4.8-9.2,5.9-14.3l13.1-0.9c0.7,0,1.3-0.7,1.3-1.4V64.3
		C125.8,63.5,125.2,62.9,124.5,62.9z M123,75.5l-12.9,0.8c-0.6,0-1.2,0.5-1.3,1.2c-1,5.5-3.1,10.6-6.3,15.2
		c-0.4,0.5-0.3,1.2,0.1,1.7l8.5,9.7l-7,7l-9.7-8.5c-0.5-0.4-1.2-0.5-1.7-0.1c-4.6,3.2-9.7,5.3-15.2,6.3c-0.6,0.1-1.1,0.6-1.2,1.3
		L75.5,123h-9.9l-0.8-12.9c0-0.6-0.5-1.2-1.2-1.3c-5.5-1-10.6-3.1-15.2-6.3c-0.5-0.4-1.2-0.3-1.7,0.1l-9.7,8.5l-7-7l8.5-9.7
		c0.4-0.5,0.5-1.2,0.1-1.7c-3.2-4.6-5.3-9.7-6.3-15.2c-0.1-0.6-0.6-1.1-1.3-1.2l-12.9-0.8v-9.9l12.9-0.8c0.6,0,1.2-0.5,1.3-1.2
		c1-5.5,3.1-10.6,6.3-15.2c0.4-0.5,0.3-1.2-0.1-1.7L29.9,37l7-7l9.7,8.5c0.5,0.4,1.2,0.5,1.7,0.1c4.6-3.2,9.7-5.3,15.2-6.3
		c0.6-0.1,1.1-0.6,1.2-1.3l0.8-12.9h9.9L76.3,31c0,0.6,0.5,1.2,1.2,1.3c5.5,1,10.6,3.1,15.2,6.3c0.5,0.4,1.2,0.3,1.7-0.1l9.7-8.5
		l7,7l-8.5,9.7c-0.4,0.5-0.5,1.2-0.1,1.7c3.2,4.6,5.3,9.7,6.3,15.2c0.1,0.6,0.6,1.1,1.3,1.2l12.9,0.8V75.5z"/>
	<path class="st0" d="M70.5,40.2c-16.7,0-30.3,13.6-30.3,30.3s13.6,30.3,30.3,30.3c16.7,0,30.3-13.6,30.3-30.3S87.2,40.2,70.5,40.2z
		 M96.5,63.8c0,1.6-1.3,2.9-2.9,2.9c-1.6,0-2.9-1.3-2.9-2.9c0-1.6,1.3-2.9,2.9-2.9C95.2,60.9,96.5,62.2,96.5,63.8z M79.4,44.9
		c1.6,0,2.9,1.3,2.9,2.9c0,1.6-1.3,2.9-2.9,2.9c-1.6,0-2.9-1.3-2.9-2.9C76.5,46.2,77.8,44.9,79.4,44.9z M65.5,97.6
		C52.7,95.3,43,84,43,70.6C43,55.4,55.3,43,70.5,43c1.7,0,3.4,0.2,5.1,0.5c-1.2,1-1.9,2.6-1.9,4.2c0,1.1,0.3,2,0.8,2.9l-5,5
		c-0.3,0.3-0.4,0.6-0.4,1v32.5c-2.5,0.6-4.3,2.9-4.3,5.5C64.7,95.8,65,96.8,65.5,97.6z M70.5,97.7c-1.6,0-2.9-1.3-2.9-2.9
		c0-1.6,1.3-2.9,2.9-2.9c1.6,0,2.9,1.3,2.9,2.9C73.4,96.4,72.1,97.7,70.5,97.7z M75.4,97.6c0.5-0.8,0.8-1.8,0.8-2.9
		c0-2.7-1.8-4.9-4.3-5.5v-32l4.6-4.6c0.9,0.5,1.8,0.8,2.9,0.8c3.2,0,5.7-2.6,5.7-5.7c0-0.2,0-0.4-0.1-0.5c4.3,2.7,7.8,6.5,10.1,11.1
		c-0.5-0.1-1-0.2-1.5-0.2c-3.2,0-5.7,2.6-5.7,5.7c0,1.1,0.3,2,0.8,2.9l-5,5c-0.3,0.3-0.4,0.6-0.4,1v10.8C80.8,84.2,79,86.4,79,89
		c0,2.8,2.1,5.2,4.8,5.6C81.2,96.1,78.4,97.1,75.4,97.6z M84.7,91.9c-1.6,0-2.9-1.3-2.9-2.9c0-1.6,1.3-2.9,2.9-2.9
		c1.6,0,2.9,1.3,2.9,2.9C87.6,90.6,86.3,91.9,84.7,91.9z M90.4,89.6c0-0.2,0.1-0.4,0.1-0.5c0-2.7-1.8-4.9-4.3-5.5V73.3l4.6-4.6
		c0.9,0.5,1.8,0.8,2.9,0.8c1.7,0,3.2-0.7,4.2-1.9c0.1,1,0.2,2,0.2,3C98,77.9,95.1,84.6,90.4,89.6z"/>
</g>
</svg>
